<svg xmlns="http://www.w3.org/2000/svg" xmlns:xlink="http://www.w3.org/1999/xlink" width="40" zoomAndPan="magnify" viewBox="0 0 30 30.000001" height="40" preserveAspectRatio="xMidYMid meet" version="1.0"><defs><g/><clipPath id="68e25dd9b8"><path d="M 0.484375 0 L 29.515625 0 L 29.515625 29.03125 L 0.484375 29.03125 Z M 0.484375 0 " clip-rule="nonzero"/></clipPath><clipPath id="8cd4af6a22"><path d="M 14 8.621094 L 18.582031 8.621094 L 18.582031 14.425781 L 14 14.425781 Z M 14 8.621094 " clip-rule="nonzero"/></clipPath><clipPath id="af54dcb1d7"><path d="M 11.324219 9 L 16 9 L 16 14.425781 L 11.324219 14.425781 Z M 11.324219 9 " clip-rule="nonzero"/></clipPath></defs><g clip-path="url(#68e25dd9b8)"><path fill="#ffffff" d="M 0.484375 0 L 29.515625 0 L 29.515625 29.03125 L 0.484375 29.03125 Z M 0.484375 0 " fill-opacity="1" fill-rule="nonzero"/><path fill="#000000" d="M 0.484375 0 L 29.515625 0 L 29.515625 29.03125 L 0.484375 29.03125 Z M 0.484375 0 " fill-opacity="1" fill-rule="nonzero"/></g><g fill="#245439" fill-opacity="1"><g transform="translate(10.230451, 17.775008)"><g><path d="M 0.59375 -1.546875 L 0.59375 -0.875 C 0.59375 -0.726562 0.625 -0.609375 0.6875 -0.515625 C 0.75 -0.429688 0.859375 -0.390625 1.015625 -0.390625 C 1.117188 -0.390625 1.210938 -0.414062 1.296875 -0.46875 L 1.328125 -0.5 C 1.347656 -0.507812 1.367188 -0.519531 1.390625 -0.53125 C 1.410156 -0.539062 1.4375 -0.546875 1.46875 -0.546875 C 1.539062 -0.546875 1.597656 -0.523438 1.640625 -0.484375 C 1.679688 -0.441406 1.703125 -0.394531 1.703125 -0.34375 C 1.703125 -0.269531 1.664062 -0.207031 1.59375 -0.15625 C 1.53125 -0.101562 1.441406 -0.0546875 1.328125 -0.015625 C 1.222656 0.015625 1.113281 0.03125 1 0.03125 C 0.695312 0.03125 0.472656 -0.0507812 0.328125 -0.21875 C 0.191406 -0.382812 0.125 -0.601562 0.125 -0.875 L 0.125 -1.546875 C 0.125 -1.816406 0.191406 -2.03125 0.328125 -2.1875 C 0.472656 -2.351562 0.695312 -2.4375 1 -2.4375 C 1.113281 -2.4375 1.222656 -2.421875 1.328125 -2.390625 C 1.441406 -2.359375 1.53125 -2.3125 1.59375 -2.25 C 1.664062 -2.195312 1.703125 -2.140625 1.703125 -2.078125 C 1.703125 -2.023438 1.679688 -1.976562 1.640625 -1.9375 C 1.597656 -1.894531 1.539062 -1.875 1.46875 -1.875 C 1.4375 -1.875 1.410156 -1.878906 1.390625 -1.890625 C 1.367188 -1.898438 1.347656 -1.910156 1.328125 -1.921875 L 1.296875 -1.9375 C 1.210938 -2 1.117188 -2.03125 1.015625 -2.03125 C 0.859375 -2.03125 0.75 -1.984375 0.6875 -1.890625 C 0.625 -1.804688 0.59375 -1.691406 0.59375 -1.546875 Z M 0.59375 -1.546875 "/></g></g></g><g fill="#245439" fill-opacity="1"><g transform="translate(12.016838, 17.775008)"><g><path d="M 0.6875 -1.265625 L 0.6875 -0.1875 C 0.6875 -0.125 0.660156 -0.0703125 0.609375 -0.03125 C 0.566406 0.0078125 0.515625 0.03125 0.453125 0.03125 C 0.390625 0.03125 0.332031 0.0078125 0.28125 -0.03125 C 0.238281 -0.0703125 0.21875 -0.125 0.21875 -0.1875 L 0.21875 -2.28125 C 0.21875 -2.332031 0.238281 -2.378906 0.28125 -2.421875 C 0.332031 -2.460938 0.390625 -2.484375 0.453125 -2.484375 C 0.515625 -2.484375 0.566406 -2.460938 0.609375 -2.421875 C 0.660156 -2.378906 0.6875 -2.332031 0.6875 -2.28125 L 0.6875 -1.65625 C 0.789062 -1.71875 0.898438 -1.75 1.015625 -1.75 C 1.234375 -1.75 1.394531 -1.691406 1.5 -1.578125 C 1.601562 -1.472656 1.65625 -1.332031 1.65625 -1.15625 L 1.65625 -0.1875 C 1.65625 -0.125 1.628906 -0.0703125 1.578125 -0.03125 C 1.535156 0.0078125 1.476562 0.03125 1.40625 0.03125 C 1.34375 0.03125 1.285156 0.0078125 1.234375 -0.03125 C 1.191406 -0.0703125 1.171875 -0.125 1.171875 -0.1875 L 1.171875 -1.1875 C 1.171875 -1.25 1.15625 -1.296875 1.125 -1.328125 C 1.101562 -1.359375 1.054688 -1.375 0.984375 -1.375 C 0.929688 -1.375 0.878906 -1.363281 0.828125 -1.34375 C 0.773438 -1.332031 0.726562 -1.304688 0.6875 -1.265625 Z M 0.6875 -1.265625 "/></g></g></g><g fill="#245439" fill-opacity="1"><g transform="translate(13.88878, 17.775008)"><g><path d="M 1.546875 -1.046875 L 1.546875 -0.40625 C 1.546875 -0.351562 1.554688 -0.320312 1.578125 -0.3125 C 1.597656 -0.3125 1.625 -0.304688 1.65625 -0.296875 C 1.707031 -0.273438 1.734375 -0.234375 1.734375 -0.171875 C 1.734375 -0.109375 1.710938 -0.0625 1.671875 -0.03125 C 1.640625 0 1.578125 0.015625 1.484375 0.015625 C 1.421875 0.015625 1.363281 0.00390625 1.3125 -0.015625 C 1.269531 -0.0351562 1.226562 -0.0703125 1.1875 -0.125 C 1.125 -0.0820312 1.054688 -0.046875 0.984375 -0.015625 C 0.910156 0.015625 0.828125 0.03125 0.734375 0.03125 C 0.535156 0.03125 0.382812 -0.0195312 0.28125 -0.125 C 0.175781 -0.226562 0.125 -0.359375 0.125 -0.515625 L 0.125 -0.53125 C 0.125 -0.875 0.347656 -1.046875 0.796875 -1.046875 C 0.835938 -1.046875 0.878906 -1.039062 0.921875 -1.03125 C 0.972656 -1.03125 1.019531 -1.023438 1.0625 -1.015625 L 1.0625 -1.125 C 1.0625 -1.28125 0.976562 -1.359375 0.8125 -1.359375 C 0.757812 -1.359375 0.71875 -1.351562 0.6875 -1.34375 C 0.65625 -1.332031 0.617188 -1.320312 0.578125 -1.3125 C 0.566406 -1.300781 0.550781 -1.289062 0.53125 -1.28125 C 0.507812 -1.269531 0.484375 -1.265625 0.453125 -1.265625 C 0.378906 -1.265625 0.328125 -1.285156 0.296875 -1.328125 C 0.265625 -1.378906 0.25 -1.425781 0.25 -1.46875 C 0.25 -1.539062 0.28125 -1.597656 0.34375 -1.640625 C 0.40625 -1.679688 0.476562 -1.707031 0.5625 -1.71875 C 0.65625 -1.738281 0.75 -1.75 0.84375 -1.75 C 1.09375 -1.75 1.269531 -1.6875 1.375 -1.5625 C 1.488281 -1.445312 1.546875 -1.273438 1.546875 -1.046875 Z M 0.828125 -0.71875 C 0.722656 -0.71875 0.65625 -0.695312 0.625 -0.65625 C 0.601562 -0.625 0.59375 -0.582031 0.59375 -0.53125 L 0.59375 -0.515625 C 0.59375 -0.453125 0.609375 -0.410156 0.640625 -0.390625 C 0.671875 -0.367188 0.722656 -0.359375 0.796875 -0.359375 C 0.847656 -0.359375 0.894531 -0.363281 0.9375 -0.375 C 0.976562 -0.382812 1.019531 -0.40625 1.0625 -0.4375 L 1.0625 -0.6875 C 0.976562 -0.707031 0.898438 -0.71875 0.828125 -0.71875 Z M 0.828125 -0.71875 "/></g></g></g><g fill="#245439" fill-opacity="1"><g transform="translate(15.675166, 17.775008)"><g><path d="M 0.21875 -0.71875 L 0.21875 -2.046875 C 0.21875 -2.097656 0.238281 -2.144531 0.28125 -2.1875 C 0.320312 -2.226562 0.378906 -2.25 0.453125 -2.25 C 0.523438 -2.25 0.582031 -2.226562 0.625 -2.1875 C 0.664062 -2.144531 0.6875 -2.097656 0.6875 -2.046875 L 0.6875 -1.65625 L 0.9375 -1.65625 C 1.007812 -1.65625 1.066406 -1.632812 1.109375 -1.59375 C 1.148438 -1.5625 1.171875 -1.515625 1.171875 -1.453125 C 1.171875 -1.398438 1.148438 -1.351562 1.109375 -1.3125 C 1.066406 -1.269531 1.007812 -1.25 0.9375 -1.25 L 0.6875 -1.25 L 0.6875 -0.734375 C 0.6875 -0.609375 0.695312 -0.519531 0.71875 -0.46875 C 0.738281 -0.414062 0.789062 -0.390625 0.875 -0.390625 C 0.894531 -0.390625 0.910156 -0.390625 0.921875 -0.390625 C 0.929688 -0.390625 0.9375 -0.390625 0.9375 -0.390625 C 1.039062 -0.390625 1.113281 -0.375 1.15625 -0.34375 C 1.195312 -0.320312 1.21875 -0.28125 1.21875 -0.21875 C 1.21875 -0.144531 1.203125 -0.09375 1.171875 -0.0625 C 1.140625 -0.03125 1.097656 -0.0078125 1.046875 0 C 0.992188 0.0078125 0.941406 0.015625 0.890625 0.015625 C 0.710938 0.015625 0.570312 -0.0078125 0.46875 -0.0625 C 0.375 -0.125 0.304688 -0.207031 0.265625 -0.3125 C 0.234375 -0.425781 0.21875 -0.5625 0.21875 -0.71875 Z M 0.21875 -0.71875 "/></g></g></g><g fill="#245439" fill-opacity="1"><g transform="translate(16.910579, 17.775008)"><g><path d="M 0.21875 -0.71875 L 0.21875 -2.046875 C 0.21875 -2.097656 0.238281 -2.144531 0.28125 -2.1875 C 0.320312 -2.226562 0.378906 -2.25 0.453125 -2.25 C 0.523438 -2.25 0.582031 -2.226562 0.625 -2.1875 C 0.664062 -2.144531 0.6875 -2.097656 0.6875 -2.046875 L 0.6875 -1.65625 L 0.9375 -1.65625 C 1.007812 -1.65625 1.066406 -1.632812 1.109375 -1.59375 C 1.148438 -1.5625 1.171875 -1.515625 1.171875 -1.453125 C 1.171875 -1.398438 1.148438 -1.351562 1.109375 -1.3125 C 1.066406 -1.269531 1.007812 -1.25 0.9375 -1.25 L 0.6875 -1.25 L 0.6875 -0.734375 C 0.6875 -0.609375 0.695312 -0.519531 0.71875 -0.46875 C 0.738281 -0.414062 0.789062 -0.390625 0.875 -0.390625 C 0.894531 -0.390625 0.910156 -0.390625 0.921875 -0.390625 C 0.929688 -0.390625 0.9375 -0.390625 0.9375 -0.390625 C 1.039062 -0.390625 1.113281 -0.375 1.15625 -0.34375 C 1.195312 -0.320312 1.21875 -0.28125 1.21875 -0.21875 C 1.21875 -0.144531 1.203125 -0.09375 1.171875 -0.0625 C 1.140625 -0.03125 1.097656 -0.0078125 1.046875 0 C 0.992188 0.0078125 0.941406 0.015625 0.890625 0.015625 C 0.710938 0.015625 0.570312 -0.0078125 0.46875 -0.0625 C 0.375 -0.125 0.304688 -0.207031 0.265625 -0.3125 C 0.234375 -0.425781 0.21875 -0.5625 0.21875 -0.71875 Z M 0.21875 -0.71875 "/></g></g></g><g fill="#245439" fill-opacity="1"><g transform="translate(18.145992, 17.775008)"><g><path d="M 0.921875 -1.03125 L 1.109375 -1.59375 C 1.128906 -1.644531 1.160156 -1.679688 1.203125 -1.703125 C 1.242188 -1.734375 1.285156 -1.75 1.328125 -1.75 C 1.390625 -1.75 1.445312 -1.726562 1.5 -1.6875 C 1.550781 -1.644531 1.578125 -1.59375 1.578125 -1.53125 C 1.578125 -1.507812 1.570312 -1.488281 1.5625 -1.46875 L 1.140625 -0.25 C 1.097656 -0.113281 1.050781 0.0078125 1 0.125 C 0.957031 0.238281 0.90625 0.335938 0.84375 0.421875 C 0.789062 0.503906 0.71875 0.566406 0.625 0.609375 C 0.539062 0.660156 0.429688 0.6875 0.296875 0.6875 C 0.234375 0.6875 0.175781 0.664062 0.125 0.625 C 0.0820312 0.59375 0.0625 0.546875 0.0625 0.484375 C 0.0625 0.429688 0.0820312 0.382812 0.125 0.34375 C 0.164062 0.300781 0.222656 0.28125 0.296875 0.28125 C 0.367188 0.28125 0.425781 0.25 0.46875 0.1875 C 0.507812 0.125 0.550781 0.03125 0.59375 -0.09375 L 0.078125 -1.453125 C 0.0664062 -1.472656 0.0625 -1.488281 0.0625 -1.5 C 0.0625 -1.519531 0.0625 -1.535156 0.0625 -1.546875 C 0.0625 -1.597656 0.0820312 -1.644531 0.125 -1.6875 C 0.164062 -1.726562 0.222656 -1.75 0.296875 -1.75 C 0.335938 -1.75 0.378906 -1.734375 0.421875 -1.703125 C 0.460938 -1.679688 0.488281 -1.644531 0.5 -1.59375 L 0.71875 -1.03125 C 0.75 -0.96875 0.769531 -0.898438 0.78125 -0.828125 C 0.789062 -0.765625 0.804688 -0.703125 0.828125 -0.640625 C 0.847656 -0.703125 0.863281 -0.765625 0.875 -0.828125 C 0.882812 -0.898438 0.898438 -0.96875 0.921875 -1.03125 Z M 0.921875 -1.03125 "/></g></g></g><g clip-path="url(#8cd4af6a22)"><path fill="#77bd20" d="M 17.53125 10.738281 C 17.722656 10.738281 17.878906 10.898438 17.878906 11.09375 C 17.878906 11.292969 17.722656 11.449219 17.53125 11.449219 C 17.34375 11.449219 17.1875 11.292969 17.1875 11.09375 C 17.1875 10.898438 17.339844 10.738281 17.53125 10.738281 M 16.355469 10.738281 C 16.542969 10.738281 16.699219 10.898438 16.699219 11.09375 C 16.699219 11.292969 16.542969 11.449219 16.355469 11.449219 C 16.164062 11.449219 16.011719 11.292969 16.011719 11.09375 C 16.011719 10.898438 16.164062 10.738281 16.355469 10.738281 Z M 18.527344 11.03125 C 18.527344 9.699219 17.484375 8.621094 16.199219 8.621094 C 15.824219 8.621094 15.46875 8.710938 15.15625 8.875 C 15.003906 8.953125 14.863281 9.046875 14.730469 9.15625 C 14.511719 9.339844 14.324219 9.566406 14.183594 9.816406 C 15.171875 10.066406 15.902344 10.988281 15.902344 12.089844 C 15.902344 12.550781 15.773438 12.984375 15.550781 13.347656 C 15.757812 13.410156 15.972656 13.441406 16.199219 13.441406 L 16.199219 14.371094 L 16.871094 13.730469 C 16.96875 13.636719 17.066406 13.542969 17.164062 13.449219 C 17.867188 12.765625 18.527344 11.984375 18.527344 11.03125 Z M 18.527344 11.03125 " fill-opacity="1" fill-rule="evenodd"/></g><path fill="#1a7727" d="M 15.179688 10.738281 C 15.367188 10.738281 15.523438 10.898438 15.523438 11.09375 C 15.523438 11.292969 15.367188 11.449219 15.179688 11.449219 C 14.988281 11.449219 14.835938 11.292969 14.835938 11.09375 C 14.835938 10.898438 14.988281 10.738281 15.179688 10.738281 M 14.183594 9.816406 C 13.984375 10.171875 13.867188 10.589844 13.867188 11.03125 C 13.867188 12.128906 14.578125 13.058594 15.550781 13.347656 C 15.773438 12.984375 15.902344 12.550781 15.902344 12.089844 C 15.902344 10.988281 15.171875 10.066406 14.183594 9.816406 Z M 14.183594 9.816406 " fill-opacity="1" fill-rule="evenodd"/><g clip-path="url(#af54dcb1d7)"><path fill="#39a650" d="M 13.867188 11.03125 C 13.867188 10.589844 13.980469 10.171875 14.183594 9.816406 C 14.007812 9.773438 13.828125 9.75 13.640625 9.75 C 12.394531 9.75 11.378906 10.796875 11.378906 12.089844 C 11.378906 13.378906 12.394531 14.429688 13.640625 14.429688 C 14.441406 14.429688 15.148438 13.996094 15.546875 13.347656 C 14.578125 13.058594 13.867188 12.128906 13.867188 11.03125 " fill-opacity="1" fill-rule="evenodd"/></g></svg>